HIERARCHY
ROOT Hips
{
	OFFSET 0.000000 0.000000 0.000000
	CHANNELS 6 Xposition Yposition Zposition Zrotation Yrotation Xrotation 
	JOINT LHipJoint
	{
		OFFSET 0.000000 0.000000 0.000000
		CHANNELS 3 Zrotation Yrotation Xrotation
		JOINT LeftUpLeg
		{
			OFFSET 1.363060 -1.794630 0.839290
			CHANNELS 3 Zrotation Yrotation Xrotation
			JOINT LeftLeg
			{
				OFFSET 2.448110 -6.726130 0.000000
				CHANNELS 3 Zrotation Yrotation Xrotation
				JOINT LeftFoot
				{
					OFFSET 2.562200 -7.039590 0.000000
					CHANNELS 3 Zrotation Yrotation Xrotation
					JOINT LeftToeBase
					{
						OFFSET 0.157640 -0.433110 2.322550
						CHANNELS 3 Zrotation Yrotation Xrotation
						End Site
						{
							OFFSET 0.000000 0.000000 0.000000
						}
					}
				}
			}
		}
	}
	JOINT RHipJoint
	{
		OFFSET 0.000000 0.000000 0.000000
		CHANNELS 3 Zrotation Yrotation Xrotation
		JOINT RightUpLeg
		{
			OFFSET -1.305520 -1.794630 0.839290
			CHANNELS 3 Zrotation Yrotation Xrotation
			JOINT RightLeg
			{
				OFFSET -2.542530 -6.985550 0.000000
				CHANNELS 3 Zrotation Yrotation Xrotation
				JOINT RightFoot
				{
					OFFSET -2.568260 -7.056230 0.000000
					CHANNELS 3 Zrotation Yrotation Xrotation
					JOINT RightToeBase
					{
						OFFSET -0.164730 -0.452590 2.363150
						CHANNELS 3 Zrotation Yrotation Xrotation
						End Site
						{
							OFFSET 0.000000 0.000000 0.000000
						}
					}
				}
			}
		}
	}
}
MOTION
Frames: 22
Frame Time: 0.008333
4.251769 17.365201 1.012586 22.514822 -86.883082 -15.312725 -10.568569 2.669939 2.484519 -6.754894 7.219863 -9.233634 -2.008479 -1.126112 -2.085133 1.039633 8.902674 2.614581 1.788800 -0.000001 -35.251800 10.366819 -1.930213 1.301966 0.644463 -7.744191 -7.793579 1.659977 0.653621 2.929877 -0.966235 -6.459927 3.027380 -1.819200 0.000000 -63.258200
4.230776 17.367016 0.988690 19.065389 -86.132067 -11.649933 -10.599580 2.663260 2.616070 -6.692492 6.891075 -9.449445 -2.025627 -1.150468 -2.329043 0.982252 8.578578 2.942393 1.787100 0.000000 -35.737000 10.323777 -1.966828 1.324848 0.788649 -7.928291 -7.896648 1.655915 0.674208 2.972391 -1.041538 -6.846231 2.781824 -1.876200 -0.000000 -62.600900
4.208806 17.369053 0.963942 16.571378 -85.402485 -8.917636 -10.616739 2.659589 2.744044 -6.626349 6.613529 -9.687617 -2.047447 -1.178658 -2.607934 0.922571 8.240360 3.287690 1.782600 0.000000 -36.246799 10.293557 -2.002529 1.366852 0.951498 -8.046122 -8.048892 1.649793 0.694256 3.041109 -1.120797 -7.247444 2.535826 -1.934600 -0.000000 -61.897700
4.186554 17.371222 0.938291 14.738246 -84.709559 -6.832065 -10.625455 2.658075 2.862899 -6.559674 6.391572 -9.927841 -2.072835 -1.209503 -2.925059 0.862435 7.899696 3.645928 1.775900 0.000000 -36.773800 10.271725 -2.034715 1.420864 1.123756 -8.102222 -8.243767 1.641403 0.711568 3.150214 -1.201616 -7.648268 2.289800 -1.990900 -0.000000 -61.175401
4.163917 17.373567 0.911786 13.357356 -84.066363 -5.174967 -10.629822 2.657517 2.972283 -6.496547 6.237297 -10.193154 -2.102611 -1.242883 -3.257540 0.801944 7.552140 4.001504 1.763800 0.000000 -37.310899 10.253963 -2.064382 1.492017 1.306064 -8.082920 -8.501659 1.630717 0.725937 3.311683 -1.284633 -8.050800 2.042774 -2.045700 -0.000000 -60.454101
4.141464 17.376020 0.884395 12.319233 -83.488849 -3.842397 -10.632183 2.656379 3.068033 -6.439040 6.154679 -10.478511 -2.135868 -1.277782 -3.592967 0.742767 7.206731 4.342721 1.746100 0.000000 -37.847600 10.238355 -2.090310 1.576629 1.492695 -7.990722 -8.822084 1.618087 0.735826 3.533105 -1.367622 -8.441533 1.796789 -2.096399 0.000000 -59.762401
4.119749 17.378484 0.856118 11.558909 -82.994918 -2.776932 -10.634293 2.653325 3.145748 -6.387900 6.145668 -10.774080 -2.171257 -1.312976 -3.919369 0.686864 6.875242 4.657915 1.723999 -0.000000 -38.372300 10.223757 -2.111226 1.668866 1.677730 -7.836439 -9.199468 1.604693 0.739757 3.817657 -1.446620 -8.798796 1.555361 -2.138900 -0.000000 -59.130100
4.098603 17.381014 0.826942 11.021810 -82.603728 -1.910576 -10.637307 2.647467 3.208350 -6.347851 6.214911 -11.113872 -2.209260 -1.348721 -4.206206 0.635354 6.561393 4.927732 1.696700 0.000000 -38.870300 10.207983 -2.129041 1.777970 1.862725 -7.603155 -9.658068 1.591111 0.739105 4.163299 -1.521718 -9.123495 1.319835 -2.174500 0.000000 -58.573000
4.078861 17.383437 0.796882 10.698213 -82.337497 -1.252651 -10.642508 2.638077 3.249026 -6.316372 6.359013 -11.462826 -2.246974 -1.382980 -4.453222 0.591245 6.287918 5.147003 1.668900 -0.000000 -39.327800 10.191106 -2.141548 1.891042 2.037752 -7.317808 -10.170255 1.579584 0.732201 4.560729 -1.585382 -9.378124 1.098722 -2.196600 -0.000001 -58.119600
4.060986 17.385736 0.766043 10.575426 -82.218545 -0.798254 -10.651144 2.624717 3.265590 -6.292286 6.577872 -11.812991 -2.282673 -1.414673 -4.651101 0.556675 6.070230 5.307227 1.644000 0.000000 -39.731900 10.172153 -2.148713 2.004849 2.199467 -6.989222 -10.725683 1.572174 0.719467 4.995204 -1.632644 -9.540355 0.898603 -2.202300 0.000000 -57.784100
4.044204 17.387898 0.734491 10.672777 -82.271221 -0.548060 -10.663346 2.608852 3.263491 -6.281206 6.873776 -12.192363 -2.316894 -1.444734 -4.783448 0.533222 5.919793 5.398930 1.624900 -0.000001 -40.065000 10.149941 -2.153210 2.131544 2.347760 -6.596700 -11.343557 1.569640 0.704073 5.450360 -1.662807 -9.609252 0.721458 -2.193400 0.000000 -57.564100
4.029420 17.389787 0.702438 11.013101 -82.518444 -0.549942 -10.680540 2.591029 3.236331 -6.276842 7.250182 -12.562825 -2.346846 -1.470932 -4.859272 0.522897 5.852856 5.425058 1.615500 0.000000 -40.321101 10.124404 -2.153363 2.259494 2.477755 -6.164424 -11.987668 1.574781 0.685917 5.904266 -1.668088 -9.550264 0.577175 -2.164700 0.000000 -57.465400
4.016345 17.391363 0.670161 11.653013 -82.983044 -0.861936 -10.703267 2.573613 3.183428 -6.276995 7.717717 -12.918422 -2.372042 -1.492467 -4.879592 0.526415 5.873972 5.386901 1.617200 0.000001 -40.494800 10.095348 -2.149626 2.389763 2.590347 -5.691422 -12.646259 1.589354 0.667284 6.335597 -1.644823 -9.349515 0.471512 -2.115300 -0.000000 -57.479500
4.004453 17.392577 0.637876 12.732367 -83.690558 -1.615532 -10.729426 2.561139 3.109764 -6.286183 8.285292 -13.274224 -2.393390 -1.509664 -4.847092 0.544739 5.988704 5.287078 1.631200 -0.000000 -40.578800 10.064134 -2.141687 2.532535 2.685975 -5.157357 -13.330011 1.613691 0.651869 6.729828 -1.592263 -9.006255 0.405354 -2.046300 -0.000001 -57.587800
3.993206 17.393365 0.605855 14.526934 -84.668566 -3.086272 -10.754228 2.560906 3.017196 -6.303218 8.967157 -13.626537 -2.411253 -1.521144 -4.772254 0.578541 6.197244 5.132511 1.657600 -0.000000 -40.574000 10.035760 -2.125688 2.690563 2.766939 -4.554802 -14.032791 1.648535 0.642999 7.074319 -1.507727 -8.511578 0.383103 -1.957100 -0.000000 -57.773901
3.982795 17.393636 0.574567 17.623389 -85.950959 -5.876177 -10.764042 2.584260 2.903696 -6.315435 9.787289 -13.959188 -2.425315 -1.522705 -4.666134 0.628019 6.489307 4.929012 1.692500 0.000000 -40.492300 10.024462 -2.090959 2.858751 2.845140 -3.885549 -14.730694 1.694984 0.643970 7.359392 -1.387259 -7.853047 0.413360 -1.846200 -0.000000 -58.025800
3.972549 17.393304 0.544238 23.862474 -87.606909 -11.821344 -10.702426 2.658831 2.776789 -6.300876 10.765848 -14.282965 -2.436715 -1.509532 -4.540920 0.695753 6.862745 4.679125 1.734200 0.000000 -40.340300 10.084844 -2.011038 3.044028 2.949637 -3.123498 -15.427272 1.751556 0.661255 7.585948 -1.229354 -7.033290 0.503484 -1.714900 -0.000001 -58.327100
3.961967 17.392363 0.515133 41.220475 -89.723942 -28.889978 -10.294248 2.818694 2.625041 -6.137724 11.918641 -14.603072 -2.454156 -1.490245 -4.393636 0.777872 7.294634 4.382761 1.779900 -0.000000 -40.128500 10.477908 -1.837708 3.275109 3.216323 -2.242365 -16.124866 1.813925 0.683355 7.743996 -1.040480 -6.079062 0.664328 -1.563800 0.000000 -58.666701
3.950785 17.390740 0.487455 -72.077453 -88.867500 84.766379 -9.386395 2.415374 2.171452 -5.741352 12.950286 -14.830170 -2.562054 -1.723521 -3.996506 0.723350 7.459579 4.178364 1.826900 -0.000000 -39.868699 11.299859 -2.170637 3.739314 3.712639 -1.537926 -16.934972 1.889430 0.444198 7.610172 -0.968010 -5.317147 0.771758 -1.394101 0.000000 -59.037900
3.942977 17.387603 0.456540 161.807526 -88.264831 -148.928792 -10.604807 1.937713 1.610729 -6.526530 15.302239 -14.752165 -2.677547 -1.828648 -3.955631 0.683608 7.591837 4.156081 1.838500 -0.000000 -39.716200 10.132852 -2.718616 4.188384 2.828550 0.179490 -17.743303 1.925048 0.320975 7.824174 -0.830958 -4.310915 0.817798 -1.209500 -0.000000 -59.407600
3.930742 17.384624 0.432260 170.749880 -85.661278 -157.617083 -10.962413 1.993168 1.421197 -6.690140 16.830731 -15.016687 -2.691741 -1.789558 -3.778216 0.782915 8.158663 3.830696 1.885401 0.000000 -39.396400 9.786442 -2.722919 4.434509 2.710630 1.227247 -18.438151 2.026639 0.374106 7.830023 -0.572821 -2.990731 1.137893 -1.003400 0.000001 -59.843401
3.917975 17.381142 0.409936 175.268187 -83.007682 -161.892490 -11.147678 2.052262 1.201240 -6.762617 18.457630 -15.263216 -2.716031 -1.758831 -3.570892 0.881870 8.742103 3.487724 1.929200 -0.000000 -39.053800 9.598834 -2.718482 4.723534 2.680648 2.361396 -19.121245 2.132697 0.414463 7.776185 -0.311621 -1.628929 1.528624 -0.780801 -0.000000 -60.308801
